<svg xmlns="http://www.w3.org/2000/svg" width="28" height="28" fill="none" viewBox="0 0 28 28">
    <path fill="#DB3333" d="M14 28C6.283 28 0 21.717 0 14S6.283 0 14 0s14 6.283 14 14-6.283 14-14 14zm0-26.224A12.212 12.212 0 0 0 1.776 14 12.212 12.212 0 0 0 14 26.224 12.212 12.212 0 0 0 26.224 14 12.212 12.212 0 0 0 14 1.776z"/>
    <path fill="#DB3333" d="M14.8 17.99c-.32 0-.64-.132-.88-.264L10 14.495l3.92-3.231c.24-.198.56-.264.88-.264.32 0 .64.132.88.264s.32.461.32.725c0 .264-.16.528-.32.725l-2.24 1.847 2.24 1.846c.24.198.32.462.32.725 0 .264-.16.528-.32.726-.16.197-.56.131-.88.131z"/>
</svg>
