<svg xmlns="http://www.w3.org/2000/svg" width="38" height="38" fill="none" viewBox="0 0 38 38">
    <path fill="#fff" d="M19 38c10.473 0 19-8.527 19-19S29.473 0 19 0 0 8.527 0 19s8.527 19 19 19zm0-35.59c9.176 0 16.59 7.414 16.59 16.59S28.176 35.59 19 35.59 2.41 28.176 2.41 19 9.824 2.41 19 2.41z"/>
    <path fill="#fff" d="M18.4 23.985c.373 0 .747-.188 1.027-.377L24 18.992l-4.573-4.615c-.28-.283-.654-.377-1.027-.377-.373 0-.747.188-1.027.377-.28.188-.373.66-.373 1.036 0 .377.187.753.373 1.036l2.614 2.638-2.614 2.637c-.28.283-.373.66-.373 1.036 0 .377.187.754.373 1.037.187.282.654.188 1.027.188z"/>
</svg>
